<?xml version="1.0" encoding="UTF-8" standalone="no"?>
<svg width="400" height="300" xmlns="http://www.w3.org/2000/svg">
  <rect width="400" height="300" fill="#f5f5f5" rx="5" ry="5"/>
  <rect x="20" y="20" width="360" height="40" fill="#e0e0e0" rx="3" ry="3"/>
  <circle cx="40" cy="40" r="10" fill="#9e9e9e"/>
  <rect x="60" y="35" width="200" height="10" fill="#9e9e9e" rx="2" ry="2"/>
  
  <rect x="20" y="80" width="360" height="200" fill="#ffffff" stroke="#e0e0e0" stroke-width="1" rx="3" ry="3"/>
  
  <rect x="40" y="100" width="320" height="30" fill="#f5f5f5" rx="3" ry="3"/>
  <text x="50" y="120" font-family="Arial" font-size="14" fill="#424242">Site Settings</text>
  
  <rect x="40" y="140" width="320" height="30" fill="#f5f5f5" rx="3" ry="3"/>
  <text x="50" y="160" font-family="Arial" font-size="14" fill="#424242">Microphone: Block ➜ Allow</text>
  <circle cx="330" cy="155" r="10" fill="#f44336"/>
  <rect x="325" y="150" width="10" height="10" fill="#ffffff" transform="rotate(45, 330, 155)"/>
  
  <rect x="40" y="180" width="320" height="30" fill="#f5f5f5" rx="3" ry="3"/>
  <text x="50" y="200" font-family="Arial" font-size="14" fill="#424242">Camera</text>
  
  <rect x="40" y="220" width="320" height="30" fill="#f5f5f5" rx="3" ry="3"/>
  <text x="50" y="240" font-family="Arial" font-size="14" fill="#424242">Notifications</text>
</svg>
